<?xml version="1.0" encoding="UTF-8" standalone="no"?>
<!-- Created with Inkscape (http://www.inkscape.org/) -->

<svg
   width="297mm"
   height="210mm"
   viewBox="0 0 297 210"
   version="1.1"
   id="svg48857"
   inkscape:version="1.1.1 (c3084ef, 2021-09-22)"
   sodipodi:docname="desertbg.svg"
   xmlns:inkscape="http://www.inkscape.org/namespaces/inkscape"
   xmlns:sodipodi="http://sodipodi.sourceforge.net/DTD/sodipodi-0.dtd"
   xmlns:xlink="http://www.w3.org/1999/xlink"
   xmlns="http://www.w3.org/2000/svg"
   xmlns:svg="http://www.w3.org/2000/svg">
  <sodipodi:namedview
     id="namedview48859"
     pagecolor="#505050"
     bordercolor="#eeeeee"
     borderopacity="1"
     inkscape:pageshadow="0"
     inkscape:pageopacity="0"
     inkscape:pagecheckerboard="0"
     inkscape:document-units="mm"
     showgrid="false"
     inkscape:zoom="0.43040657"
     inkscape:cx="575.03769"
     inkscape:cy="386.84354"
     inkscape:window-width="1312"
     inkscape:window-height="773"
     inkscape:window-x="126"
     inkscape:window-y="25"
     inkscape:window-maximized="0"
     inkscape:current-layer="layer1"
     showguides="false" />
  <defs
     id="defs48854">
    <linearGradient
       inkscape:collect="always"
       id="linearGradient53257">
      <stop
         style="stop-color:#e48944;stop-opacity:1;"
         offset="0"
         id="stop53253" />
      <stop
         style="stop-color:#e48944;stop-opacity:1"
         offset="0.48639756"
         id="stop53359" />
      <stop
         style="stop-color:#d76950;stop-opacity:1"
         offset="1"
         id="stop53255" />
    </linearGradient>
    <linearGradient
       id="linearGradient52332"
       inkscape:swatch="solid">
      <stop
         style="stop-color:#814213;stop-opacity:1;"
         offset="0"
         id="stop52330" />
    </linearGradient>
    <radialGradient
       inkscape:collect="always"
       xlink:href="#linearGradient53257"
       id="radialGradient53841"
       cx="149.03902"
       cy="104.57026"
       fx="149.03902"
       fy="104.57026"
       r="148.60039"
       gradientTransform="matrix(1.0306881,-0.0067226,0.00747742,1.0768555,-4.0521701,-6.9262408)"
       gradientUnits="userSpaceOnUse" />
  </defs>
  <g
     inkscape:label="BG"
     inkscape:groupmode="layer"
     id="layer1">
    <rect
       style="fill:url(#radialGradient53841);fill-opacity:1;stroke:#000000;stroke-width:0.203726"
       id="rect48937"
       width="306.12128"
       height="209.99683"
       x="-2.7181585"
       y="-0.31952545" />
  </g>
  <g
     inkscape:groupmode="layer"
     id="layer17"
     inkscape:label="layerBack">
    <path
       style="fill:#afc95e;fill-opacity:1;stroke:none;stroke-width:0.181391px;stroke-linecap:butt;stroke-linejoin:miter;stroke-opacity:1"
       d="m 261.3381,85.202538 13.1617,-0.9971 c 0.27897,-8.27287 -1.19652,-19.94194 -1.19652,-19.94194 12.99676,4.32414 18.27705,-16.578452 14.95646,-21.337885 -11.08689,-3.04502 -5.44778,16.920285 -15.72887,10.950909 -2.38719,-6.884082 2.09242,-17.75597 -5.60902,-18.528848 -11.58974,1.170204 -4.57123,20.016937 -4.58665,28.118144 -13.04483,5.56682 -5.41281,-12.476555 -15.35529,-9.372716 -6.04048,17.699786 7.06874,17.453416 14.55762,18.546016 0.90097,1.80192 -0.59702,8.44291 -0.19943,12.56342 z"
       id="path57231-7-6"
       sodipodi:nodetypes="cccccccccc" />
    <path
       style="fill:#afc95e;fill-opacity:1;stroke:none;stroke-width:0.11128px;stroke-linecap:butt;stroke-linejoin:miter;stroke-opacity:1"
       d="m 35.124502,49.817827 -8.2974,-0.595265 c -0.17587,-4.938871 0.75431,-11.905261 0.75431,-11.905261 -8.19341,2.581495 -11.52221,-9.897272 -9.42885,-12.738636 6.9894,-1.817865 3.43439,10.101345 9.91579,6.537651 1.50494,-4.109771 -1.3191,-10.600246 3.53604,-11.061651 7.3064,0.698607 2.8818,11.950034 2.89152,16.786424 8.22372,3.32337 3.41234,-7.448456 9.68028,-5.595476 3.80803,10.566705 -4.45628,10.419623 -9.17742,11.071901 -0.56799,1.075739 0.37638,5.040384 0.12573,7.500313 z"
       id="path57231-7-7"
       sodipodi:nodetypes="cccccccccc" />
    <path
       style="fill:#afc95e;fill-opacity:1;stroke:none;stroke-width:0.129419px;stroke-linecap:butt;stroke-linejoin:miter;stroke-opacity:1"
       d="m 73.06077,57.855499 9.303807,-0.718048 c 0.1972,-5.957593 -0.845805,-14.360913 -0.845805,-14.360913 9.187215,3.11397 12.919765,-11.938744 10.572495,-15.366184 -7.83715,-2.192829 -3.85095,12.18491 -11.118499,7.886146 -1.687469,-4.957476 1.479099,-12.786717 -3.964931,-13.343294 -8.19261,0.842706 -3.231332,14.414921 -3.242233,20.248894 -9.22119,4.008868 -3.826239,-8.984819 -10.854419,-6.749633 -4.269923,12.746257 4.996784,12.568837 10.290559,13.355658 0.636882,1.297628 -0.422025,6.080046 -0.140974,9.047374 z"
       id="path57231-7-70"
       sodipodi:nodetypes="cccccccccc" />
    <path
       style="fill:#e6a803;fill-opacity:1;stroke:none;stroke-width:0.265502px;stroke-linecap:butt;stroke-linejoin:miter;stroke-opacity:1"
       d="M -3.159797,44.199636 -1.5314851,209.67877 H 297.53528 L 298.07804,91.633394 C 161.75684,182.3332 174.50323,43.544319 -3.159797,44.199636 Z"
       id="path55087"
       sodipodi:nodetypes="ccccc" />
    <path
       style="fill:#cd93b6;fill-opacity:1;stroke:none;stroke-width:0.0269206px;stroke-linecap:butt;stroke-linejoin:miter;stroke-opacity:1"
       d="m 31.604392,20.054665 c -1.607603,1.217689 -3.763996,-1.970075 -4.129962,-4.272224 0.166307,-0.08356 2.61672,2.087804 3.026218,2.223423 -0.477209,-1.144871 -0.2687,-1.755876 0.3786,-4.033254 1.010285,2.302952 1.222972,3.894736 1.446364,3.758728 0.223392,-0.136008 0.861492,-0.528924 1.6158,-3.437696 0.790571,0.328885 0.712366,3.648244 -0.200717,3.79512 1.299371,0.547722 2.005334,-0.449471 3.109118,-1.016627 -1.077376,3.570165 -2.441944,3.997014 -5.245421,2.98253 z"
       id="path58801"
       sodipodi:nodetypes="ccccscccc" />
    <path
       style="fill:#cd93b6;fill-opacity:1;stroke:none;stroke-width:0.0269206px;stroke-linecap:butt;stroke-linejoin:miter;stroke-opacity:1"
       d="m 63.815951,35.366299 c -1.607603,1.217689 -3.763996,-1.970075 -4.129962,-4.272224 0.166307,-0.08356 2.61672,2.087804 3.026218,2.223423 -0.477209,-1.144871 -0.2687,-1.755876 0.3786,-4.033254 1.010285,2.302952 1.222972,3.894736 1.446364,3.758728 0.223392,-0.136008 0.861492,-0.528924 1.6158,-3.437696 0.790571,0.328885 0.712366,3.648244 -0.200717,3.79512 1.299371,0.547722 2.005334,-0.449471 3.109118,-1.016627 -1.077376,3.570165 -2.441944,3.997014 -5.245421,2.98253 z"
       id="path58801-7"
       sodipodi:nodetypes="ccccscccc" />
  </g>
  <g
     inkscape:groupmode="layer"
     id="layer18"
     inkscape:label="layerMid">
    <path
       style="fill:#f3c43d;fill-opacity:1;stroke:none;stroke-width:0.269031px;stroke-linecap:butt;stroke-linejoin:miter;stroke-opacity:1"
       d="M 304.2309,74.655422 302.83767,209.67877 H -4.2312037 L -4.509852,90.287002 C 135.45889,180.9868 121.81415,74.000105 304.2309,74.655422 Z"
       id="path55087-8"
       sodipodi:nodetypes="ccccc" />
    <path
       style="fill:#afc95e;fill-opacity:1;stroke:none;stroke-width:0.264583px;stroke-linecap:butt;stroke-linejoin:miter;stroke-opacity:1"
       d="m 258.96459,168.5922 19.19803,-1.4544 c 0.40692,-12.06705 -1.74527,-29.0879 -1.74527,-29.0879 18.95745,6.30732 26.65944,-24.18181 21.81593,-31.12406 -16.17166,-4.44155 -7.94629,24.68043 -22.9426,15.97332 -3.48201,-10.04132 3.05207,-25.899376 -8.18147,-27.02672 -16.90513,1.706895 -6.66774,29.19729 -6.69022,41.01395 -19.02758,8.11992 -7.8953,-18.19867 -22.39768,-13.67132 -8.81083,25.81743 10.31066,25.45807 21.23417,27.05176 1.31417,2.62834 -0.87083,12.31507 -0.29089,18.32537 z"
       id="path57231"
       sodipodi:nodetypes="cccccccccc" />
    <path
       style="fill:#afc95e;fill-opacity:1;stroke:none;stroke-width:0.181391px;stroke-linecap:butt;stroke-linejoin:miter;stroke-opacity:1"
       d="m 95.844199,129.56305 -13.1617,-0.9971 c -0.27897,-8.27287 1.19652,-19.94194 1.19652,-19.94194 -12.99676,4.32414 -18.27705,-16.578452 -14.95646,-21.337885 11.08689,-3.04502 5.44778,16.920285 15.72887,10.950909 2.38719,-6.884082 -2.09242,-17.75597 5.60902,-18.528848 11.589741,1.170204 4.57123,20.016937 4.58665,28.118144 13.044831,5.56682 5.412811,-12.476555 15.355291,-9.372716 6.04048,17.699786 -7.06874,17.453416 -14.557621,18.546016 -0.90097,1.80192 0.59702,8.44291 0.19943,12.56342 z"
       id="path57231-7"
       sodipodi:nodetypes="cccccccccc" />
  </g>
  <g
     inkscape:groupmode="layer"
     id="layer19"
     inkscape:label="layerFront">
    <path
       style="fill:#f8de91;fill-opacity:1;stroke:none;stroke-width:0.277253px;stroke-linecap:butt;stroke-linejoin:miter;stroke-opacity:1"
       d="m -3.3969893,144.37467 -0.8390378,70.43839 H 303.96999 L 303.6903,159.77443 C 195.08661,197.57111 122.08145,71.815725 -3.3969893,144.37467 Z"
       id="path55087-6"
       sodipodi:nodetypes="ccccc" />
    <path
       style="fill:#cd93b6;fill-opacity:1;stroke:none;stroke-width:0.0636656px;stroke-linecap:butt;stroke-linejoin:miter;stroke-opacity:1"
       d="m 265.64733,98.430724 c -3.80188,2.879766 -8.90161,-4.659099 -9.76711,-10.103548 0.39331,-0.197709 6.18839,4.937524 7.15683,5.258257 -1.12857,-2.70755 -0.63546,-4.152553 0.89537,-9.538422 2.38925,5.446365 2.89225,9.21083 3.42055,8.889175 0.52831,-0.321632 2.03738,-1.250865 3.82128,-8.129934 1.86965,0.777781 1.68471,8.627872 -0.47467,8.975235 3.07293,1.295325 4.74249,-1.06297 7.35286,-2.40427 -2.54792,8.443241 -5.77504,9.452693 -12.40511,7.053507 z"
       id="path58801-9"
       sodipodi:nodetypes="ccccscccc" />
  </g>
</svg>
